<?xml version="1.0" standalone="no"?>
<!DOCTYPE svg PUBLIC "-//W3C//DTD SVG 20010904//EN"
 "http://www.w3.org/TR/2001/REC-SVG-20010904/DTD/svg10.dtd">
<svg version="1.0" xmlns="http://www.w3.org/2000/svg"
 width="100.000000pt" height="100.000000pt" viewBox="0 0 100.000000 100.000000"
 preserveAspectRatio="xMidYMid meet">

<g transform="translate(0.000000,100.000000) scale(0.100000,-0.100000)"
fill="#000000" stroke="none">
<path d="M478 943 c12 -2 32 -2 45 0 12 2 2 4 -23 4 -25 0 -35 -2 -22 -4z"/>
<path d="M337 916 c-115 -48 -188 -115 -239 -222 -16 -34 -31 -79 -34 -100 -4
-32 -2 -29 11 15 45 159 183 290 335 320 36 7 39 9 15 10 -16 0 -56 -10 -88
-23z"/>
<path d="M595 927 c128 -33 243 -127 295 -239 16 -35 29 -57 30 -49 0 7 -14
40 -32 73 -58 109 -194 210 -299 223 l-44 5 50 -13z"/>
<path d="M928 534 c4 -75 1 -104 -17 -160 -11 -38 -29 -79 -38 -91 -16 -19
-23 -21 -73 -12 -67 10 -92 28 -150 105 -121 160 -146 175 -217 127 -23 -15
-80 -63 -128 -105 -79 -72 -89 -78 -130 -78 -24 0 -50 -2 -58 -5 -13 -6 -27
27 -51 120 -3 11 -3 0 0 -24 11 -96 105 -232 201 -288 300 -176 677 37 672
381 -1 39 -4 82 -8 96 -5 14 -6 -16 -3 -66z"/>
<path d="M53 505 c0 -22 2 -30 4 -17 2 12 2 30 0 40 -3 9 -5 -1 -4 -23z"/>
</g>
</svg>
